<svg width="24" height="37" viewBox="0 0 24 37" fill="none" xmlns="http://www.w3.org/2000/svg">
<path d="M12 9L12.7071 8.29289L12 7.58579L11.2929 8.29289L12 9ZM18.7071 14.2929L12.7071 8.29289L11.2929 9.70711L17.2929 15.7071L18.7071 14.2929ZM11.2929 8.29289L5.29289 14.2929L6.70711 15.7071L12.7071 9.70711L11.2929 8.29289Z" fill="#6D6C54" fill-opacity="0.8"/>
<path d="M12 28L12.7071 28.7071L12 29.4142L11.2929 28.7071L12 28ZM18.7071 22.7071L12.7071 28.7071L11.2929 27.2929L17.2929 21.2929L18.7071 22.7071ZM11.2929 28.7071L5.29289 22.7071L6.70711 21.2929L12.7071 27.2929L11.2929 28.7071Z" fill="#6D6C54" fill-opacity="0.8"/>
</svg>
